<svg width="49" height="50" viewBox="0 0 49 50" fill="none" xmlns="http://www.w3.org/2000/svg">
<path d="M15.0416 34.7084H10.5016C8.78624 34.6629 7.42808 33.183 7.46164 31.3959V16.8126C7.42808 15.0255 8.78624 13.5456 10.5016 13.5001H21.9016C22.719 13.5001 23.3816 12.8099 23.3816 11.9584C23.3816 11.107 22.719 10.4168 21.9016 10.4168H10.5016C8.88578 10.4163 7.33805 11.0948 6.20872 12.2986C5.07939 13.5024 4.46393 15.1299 4.50164 16.8126V31.3959C4.46393 33.0787 5.07939 34.7061 6.20872 35.9099C7.33805 37.1138 8.88578 37.7922 10.5016 37.7918H15.0416C15.859 37.7918 16.5216 37.1015 16.5216 36.2501C16.5216 35.3987 15.859 34.7084 15.0416 34.7084Z" fill="#EE3C08"/>
<path fill-rule="evenodd" clip-rule="evenodd" d="M39.1816 16.2918H39.9016C41.794 16.2568 43.3579 17.8208 43.4016 19.7918V28.4168C43.3579 30.3877 41.794 31.9517 39.9016 31.9168H39.1616C38.971 35.2213 36.3397 37.7977 33.1616 37.7918H24.1016C23.2843 37.7918 22.6216 37.1015 22.6216 36.2501C22.6216 35.3987 23.2843 34.7084 24.1016 34.7084H33.1616C34.877 34.6629 36.2352 33.183 36.2016 31.3959V16.8126C36.2352 15.0255 34.877 13.5456 33.1616 13.5001H30.9016C30.0843 13.5001 29.4216 12.8099 29.4216 11.9584C29.4216 11.107 30.0843 10.4168 30.9016 10.4168H33.1816C36.3597 10.4108 38.991 12.9872 39.1816 16.2918ZM39.9016 28.7918C40.1816 28.7918 40.4016 28.6043 40.4016 28.4168V19.7918C40.4016 19.6043 40.1816 19.4168 39.9016 19.4168H39.2416V28.7918H39.9016Z" fill="#EE3C08"/>
<path d="M30.1016 23.9584C29.7379 23.0172 28.8752 22.3881 27.9016 22.3543H19.9016L28.2016 13.6876C28.8391 12.9946 28.8391 11.9014 28.2016 11.2084C27.8864 10.8789 27.4582 10.6937 27.0116 10.6937C26.5651 10.6937 26.1369 10.8789 25.8216 11.2084L16.1016 21.3959C15.3734 22.1437 15.1557 23.2782 15.5522 24.2601C15.9486 25.242 16.8792 25.8734 17.9016 25.8543H25.7816L17.4816 34.5209C17.1653 34.8493 16.9875 35.2953 16.9875 35.7605C16.9875 36.2257 17.1653 36.6717 17.4816 37.0001C17.7942 37.3256 18.2197 37.5059 18.6616 37.5001C19.1027 37.5013 19.5266 37.3217 19.8416 37.0001L29.5616 26.8751C30.3085 26.1156 30.5238 24.9528 30.1016 23.9584Z" fill="#EE3C08"/>
</svg>
