<svg width="40" height="41" viewBox="0 0 40 41" fill="none" xmlns="http://www.w3.org/2000/svg">
<rect y="0.944336" width="40" height="40" rx="15" fill="#1C1B1B"/>
<path d="M22.1455 18.8514H23.1872C23.3216 18.8514 23.4504 18.7994 23.5445 18.7071C23.6385 18.6147 23.69 18.4898 23.6872 18.3606V16.758C23.6881 16.5074 23.4886 16.2982 23.2288 16.2773C23.2288 16.2773 22.4893 16.2172 21.583 16.2172C19.3538 16.2172 18.1247 17.4892 18.1247 19.7929V21.5657H16.0726C15.9391 21.563 15.8103 21.6127 15.7159 21.7035C15.6215 21.7943 15.5697 21.9182 15.5726 22.0465V23.5088C15.5697 23.6372 15.6215 23.7611 15.7159 23.8518C15.8103 23.9426 15.9391 23.9924 16.0726 23.9896H18.0934V29.6587H21.1351V23.9896H22.9684C23.2202 23.9871 23.4325 23.8085 23.4684 23.5689L23.6559 22.1066C23.675 21.9682 23.6292 21.8288 23.5309 21.726C23.4355 21.6234 23.299 21.5651 23.1559 21.5657H21.1351V19.853C21.1348 19.3113 21.5824 18.8676 22.1455 18.8514Z" fill="white"/>
<path fill-rule="evenodd" clip-rule="evenodd" d="M9.58301 20.8546C9.58301 15.3727 14.2047 10.9287 19.9059 10.9287C22.6437 10.9287 25.2694 11.9745 27.2053 13.8359C29.1413 15.6974 30.2288 18.2221 30.2288 20.8546C30.2288 26.3365 25.6071 30.7805 19.9059 30.7805C14.2047 30.7805 9.58301 26.3365 9.58301 20.8546ZM28.6663 20.8546C28.6663 16.2024 24.7442 12.4311 19.9059 12.4311C15.0724 12.4421 11.157 16.207 11.1455 20.8546C11.1455 25.5067 15.0677 29.2781 19.9059 29.2781C24.7442 29.2781 28.6663 25.5067 28.6663 20.8546Z" fill="white"/>
</svg>
