<svg width="40" height="41" viewBox="0 0 40 41" fill="none" xmlns="http://www.w3.org/2000/svg">
<rect y="0.944336" width="40" height="40" rx="20" fill="#1C1B1B"/>
<path fill-rule="evenodd" clip-rule="evenodd" d="M14.4423 10.9443H25.5623C28.0954 11.0313 30.0809 13.1509 30.0023 15.6843V22.2043C30.0399 23.4279 29.5883 24.6159 28.7475 25.5056C27.9067 26.3952 26.746 26.913 25.5223 26.9443H16.0023C15.3434 26.958 14.7187 27.2396 14.2723 27.7243L11.9023 30.2543C11.7015 30.4733 11.4193 30.5999 11.1223 30.6043C10.8154 30.5965 10.5245 30.4664 10.3141 30.2429C10.1038 30.0194 9.99148 29.7211 10.0023 29.4143V15.6843C9.92363 13.1509 11.9091 11.0313 14.4423 10.9443ZM25.5623 25.4443C27.2672 25.3581 28.5815 23.9096 28.5023 22.2043V15.6843C28.5815 13.9791 27.2672 12.5306 25.5623 12.4443H14.4423C12.7373 12.5306 11.423 13.9791 11.5023 15.6843V28.4843L13.1323 26.7043C13.8777 25.9114 14.914 25.4564 16.0023 25.4443H25.5623Z" fill="#FFF5ED"/>
<path d="M16.2523 17.6943H21.2523C21.6665 17.6943 22.0023 17.3585 22.0023 16.9443C22.0023 16.5301 21.6665 16.1943 21.2523 16.1943H16.2523C15.838 16.1943 15.5023 16.5301 15.5023 16.9443C15.5023 17.3585 15.838 17.6943 16.2523 17.6943Z" fill="#FFF5ED"/>
<path d="M23.7523 20.1943H16.2523C15.838 20.1943 15.5023 20.5301 15.5023 20.9443C15.5023 21.3585 15.838 21.6943 16.2523 21.6943H23.7523C24.1665 21.6943 24.5023 21.3585 24.5023 20.9443C24.5023 20.5301 24.1665 20.1943 23.7523 20.1943Z" fill="#FFF5ED"/>
</svg>
