<svg width="40" height="41" viewBox="0 0 40 41" fill="none" xmlns="http://www.w3.org/2000/svg">
<rect y="0.944336" width="40" height="40" rx="20" fill="#1C1B1B"/>
<g clip-path="url(#clip0_52_1400)">
<path d="M15.9571 19.342C16.5621 20.4387 17.2594 21.4913 18.1646 22.4511C19.0728 23.4169 20.2022 24.2958 21.6642 25.0466C21.7726 25.0996 21.8751 25.0996 21.9674 25.0627C22.1065 25.0097 22.2486 24.8934 22.3878 24.7536C22.4962 24.6447 22.631 24.4709 22.7716 24.281L22.7748 24.2767C23.3368 23.534 24.0318 22.6155 25.0128 23.0768C25.0223 23.0813 25.0307 23.086 25.039 23.0907C25.0498 23.0968 25.0604 23.1027 25.0728 23.1077L28.3512 25.0024C28.3573 25.0059 28.3641 25.0111 28.3704 25.0159C28.3745 25.0191 28.3784 25.0221 28.3819 25.0245C28.8141 25.3233 28.9928 25.7841 28.9972 26.3067C28.9972 26.8382 28.8023 27.4359 28.5167 27.9408C28.1388 28.6077 27.5821 29.0493 26.9405 29.3408C26.3297 29.6235 25.65 29.7751 24.9967 29.8723C23.9713 30.0239 23.0103 29.9267 22.0274 29.6235C21.0665 29.3246 20.0982 28.8315 19.0406 28.1749L18.963 28.1248C18.9335 28.1063 18.9039 28.0877 18.8742 28.069C18.4144 27.7803 17.9225 27.4714 17.4395 27.1105C15.5587 25.6825 13.6412 23.62 12.3917 21.35C11.3443 19.445 10.773 17.3884 11.0851 15.429C11.2579 14.3543 11.7164 13.3768 12.5162 12.732C13.2135 12.1667 14.1524 11.8575 15.3683 11.9665C15.5074 11.9768 15.6319 12.0578 15.6978 12.1785L17.7999 15.7499C18.1075 16.1503 18.1456 16.5478 17.9771 16.9453C17.838 17.2706 17.5567 17.571 17.1729 17.8507C17.0602 17.9478 16.9254 18.0465 16.7833 18.1495C16.3131 18.4925 15.7784 18.8885 15.9615 19.3537L15.9571 19.342Z" fill="#F6F6F6"/>
<path d="M15.9571 19.342C16.5621 20.4387 17.2594 21.4913 18.1646 22.4511C19.0728 23.4169 20.2022 24.2958 21.6642 25.0466C21.7726 25.0996 21.8751 25.0996 21.9674 25.0627C22.1065 25.0097 22.2486 24.8934 22.3878 24.7536C22.4962 24.6447 22.631 24.4709 22.7716 24.281L22.7748 24.2767C23.3368 23.534 24.0318 22.6155 25.0128 23.0768C25.0223 23.0813 25.0307 23.086 25.039 23.0907C25.0498 23.0968 25.0604 23.1027 25.0728 23.1077L28.3512 25.0024C28.3573 25.0059 28.3641 25.0111 28.3704 25.0159C28.3745 25.0191 28.3784 25.0221 28.3819 25.0245C28.8141 25.3233 28.9928 25.7841 28.9972 26.3067C28.9972 26.8382 28.8023 27.4359 28.5167 27.9408C28.1388 28.6077 27.5821 29.0493 26.9405 29.3408C26.3297 29.6235 25.65 29.7751 24.9967 29.8723C23.9713 30.0239 23.0103 29.9267 22.0274 29.6235C21.0665 29.3246 20.0982 28.8315 19.0406 28.1749L18.963 28.1248C18.9335 28.1063 18.9039 28.0877 18.8742 28.069C18.4144 27.7803 17.9225 27.4714 17.4395 27.1105C15.5587 25.6825 13.6412 23.62 12.3917 21.35C11.3443 19.445 10.773 17.3884 11.0851 15.429C11.2579 14.3543 11.7164 13.3768 12.5162 12.732C13.2135 12.1667 14.1524 11.8575 15.3683 11.9665C15.5074 11.9768 15.6319 12.0578 15.6978 12.1785L17.7999 15.7499C18.1075 16.1503 18.1456 16.5478 17.9771 16.9453C17.838 17.2706 17.5567 17.571 17.1729 17.8507C17.0602 17.9478 16.9254 18.0465 16.7833 18.1495C16.3131 18.4925 15.7784 18.8885 15.9615 19.3537L15.9571 19.342Z" stroke="white"/>
</g>
<defs>
<clipPath id="clip0_52_1400">
<rect width="18" height="18" fill="white" transform="translate(11 11.9443)"/>
</clipPath>
</defs>
</svg>
