<svg width="40" height="41" viewBox="0 0 40 41" fill="none" xmlns="http://www.w3.org/2000/svg">
<rect y="0.944336" width="40" height="40" rx="15" fill="#1C1B1B"/>
<path fill-rule="evenodd" clip-rule="evenodd" d="M16 10.9443H23.7C27.0137 10.9443 29.7 13.6306 29.7 16.9443V24.6443C29.7 27.958 27.0137 30.6443 23.7 30.6443H16C12.6863 30.6443 10 27.958 10 24.6443V16.9443C10 13.6306 12.6863 10.9443 16 10.9443ZM28.2 16.9443C28.1945 14.4613 26.183 12.4498 23.7 12.4443H16C13.517 12.4498 11.5055 14.4613 11.5 16.9443V24.6443C11.5055 27.1273 13.517 29.1388 16 29.1443H23.7C26.183 29.1388 28.1945 27.1273 28.2 24.6443V16.9443Z" fill="white"/>
<path fill-rule="evenodd" clip-rule="evenodd" d="M15.55 20.7943C15.5555 18.4218 17.4775 16.4998 19.85 16.4943C22.2225 16.4998 24.1445 18.4218 24.15 20.7943C24.15 23.1692 22.2248 25.0943 19.85 25.0943C17.4752 25.0943 15.55 23.1692 15.55 20.7943ZM22.65 20.7943C22.65 19.2479 21.3964 17.9943 19.85 17.9943C18.3059 17.9998 17.0555 19.2502 17.05 20.7943C17.05 22.3407 18.3036 23.5943 19.85 23.5943C21.3964 23.5943 22.65 22.3407 22.65 20.7943Z" fill="white"/>
<path d="M23.51 15.4493C23.51 14.8501 23.9958 14.3643 24.595 14.3643C25.1942 14.3643 25.68 14.8501 25.68 15.4493C25.68 16.0486 25.1942 16.5343 24.595 16.5343C23.9958 16.5343 23.51 16.0486 23.51 15.4493Z" fill="white"/>
</svg>
