<svg width="40" height="41" viewBox="0 0 40 41" fill="none" xmlns="http://www.w3.org/2000/svg">
<rect y="0.944336" width="40" height="40" rx="15" fill="#1C1B1B"/>
<path fill-rule="evenodd" clip-rule="evenodd" d="M15.5583 16.9444C14.5186 16.9531 13.4786 16.9512 12.4388 16.9454C12.145 16.9437 11.9995 17.0451 12 17.3795C12.0065 21.1081 12.004 24.8368 12.0047 28.5654C12.0048 28.7074 11.9831 28.8633 12.1579 28.928C12.1645 28.9507 15.8302 28.9493 15.84 28.9267C16.033 28.8516 15.9941 28.6766 15.9942 28.5254C15.9959 24.8231 15.9929 21.1207 16 17.4183C16.0005 17.0823 15.8855 16.9416 15.5583 16.9444Z" fill="white"/>
<path fill-rule="evenodd" clip-rule="evenodd" d="M14 11.9443C12.8955 11.9443 12 12.8398 12 13.9443C12 15.0489 12.8955 15.9443 14 15.9443C15.1045 15.9443 16 15.0489 16 13.9443C16 12.8398 15.1045 11.9443 14 11.9443Z" fill="white"/>
<path fill-rule="evenodd" clip-rule="evenodd" d="M28.9481 28.3696C28.9505 26.4584 28.9602 24.5471 28.9447 22.6361C28.9379 21.7989 28.9078 20.9596 28.7319 20.1358C28.4435 18.785 27.7945 17.7304 26.5054 17.2386C25.6453 16.9106 24.7461 16.8895 23.848 17.0166C23.0935 17.1235 22.3985 17.4108 21.7653 17.945C21.7653 17.7506 21.7647 17.6218 21.7655 17.493C21.7674 17.2039 21.6329 17.0733 21.3557 17.0746C20.3708 17.0792 19.3859 17.078 18.4008 17.0754C18.1297 17.0746 17.9996 17.1866 18 17.4913C18.0052 21.1587 18.0033 24.8261 18.0034 28.4935C18.0034 28.6342 17.9849 28.7838 18.1477 28.8531C18.1649 28.8757 21.7208 28.8842 21.7207 28.8611C21.9539 28.7564 21.8822 28.5352 21.8826 28.3552C21.8858 26.5464 21.875 24.7375 21.8847 22.9287C21.8877 22.3631 21.9086 21.7917 22.1529 21.265C22.4424 20.6409 23.0415 20.3705 23.8854 20.4812C24.4659 20.5572 24.8365 20.9504 24.9519 21.6352C24.9946 21.8882 25.0265 22.1469 25.028 22.4032C25.0393 24.3929 25.0409 26.3825 25.0491 28.3722C25.05 28.5559 24.9948 28.7729 25.2315 28.8652C25.2234 28.8913 28.8039 28.8755 28.8048 28.8503C28.9975 28.7379 28.9479 28.542 28.9481 28.3696Z" fill="white"/>
</svg>
